<?xml version="1.0" standalone="no"?>
<!DOCTYPE svg PUBLIC "-//W3C//DTD SVG 20010904//EN"
 "http://www.w3.org/TR/2001/REC-SVG-20010904/DTD/svg10.dtd">
<svg version="1.0" xmlns="http://www.w3.org/2000/svg"
 width="500.000000pt" height="500.000000pt" viewBox="0 0 500.000000 500.000000"
 preserveAspectRatio="xMidYMid meet">
<metadata>
Created by potrace 1.16, written by Peter Selinger 2001-2019
</metadata>
<g transform="translate(0.000000,500.000000) scale(0.100000,-0.100000)"
fill="#000000" stroke="none">
<path d="M1056 4269 c-12 -17 -16 -46 -16 -111 0 -84 -1 -88 -22 -89 -13 0
-45 -8 -73 -18 -42 -15 -53 -24 -70 -59 -11 -23 -35 -51 -53 -62 -18 -11 -36
-30 -40 -43 -5 -12 -6 -486 -3 -1052 6 -971 7 -1033 24 -1058 10 -16 29 -32
43 -37 15 -6 245 -10 562 -10 295 0 554 -3 575 -6 34 -6 37 -9 37 -38 0 -42
-40 -142 -81 -203 -81 -120 -459 -462 -692 -627 l-59 -41 539 -3 c357 -1 547
1 563 8 14 6 46 36 70 66 79 99 182 186 311 263 307 184 466 288 525 346 61
60 137 176 150 228 5 23 11 27 28 23 71 -17 223 -28 419 -29 l225 -2 31 29 31
30 0 230 c0 127 -7 364 -16 526 -15 294 -14 504 6 750 5 63 12 241 15 395 l6
280 -27 42 c-31 47 -59 63 -109 63 l-35 0 0 75 c0 62 -4 79 -20 95 -11 11 -27
20 -35 20 -8 0 -117 -29 -243 -64 -453 -129 -592 -165 -882 -232 -107 -25
-218 -52 -247 -60 l-52 -15 -12 -56 c-9 -40 -23 -66 -46 -89 -18 -18 -33 -37
-33 -42 0 -17 24 -30 60 -34 44 -4 50 -29 20 -87 -17 -34 -25 -41 -50 -41 -25
0 -30 -4 -30 -25 0 -39 27 -85 51 -85 29 0 43 -44 27 -86 -9 -26 -16 -33 -30
-28 -10 3 -28 2 -39 -1 -33 -11 -19 -71 26 -112 29 -26 35 -39 35 -72 0 -45
-11 -57 -39 -42 -14 8 -23 6 -37 -10 -21 -23 -22 -18 46 -119 l34 -52 9 29
c12 37 14 232 4 261 -6 16 -5 22 7 22 22 0 29 32 31 155 3 154 24 459 33 466
4 3 77 25 162 48 85 23 184 51 220 61 36 10 198 52 360 94 477 122 590 147
590 130 0 -17 30 -653 40 -834 5 -102 15 -413 21 -692 l13 -507 24 -6 c13 -3
31 0 39 6 26 22 33 -10 33 -162 0 -199 13 -187 -205 -202 -192 -13 -430 -16
-441 -4 -10 10 -33 205 -33 289 -1 41 -8 81 -18 102 -16 34 -15 40 5 130 29
124 28 137 -11 193 -19 27 -51 77 -72 113 -51 86 -71 107 -125 134 -50 25
-149 60 -155 55 -2 -2 0 -57 4 -122 8 -126 13 -138 58 -129 26 5 26 4 21 -46
-4 -36 -17 -71 -43 -114 -47 -77 -105 -151 -113 -143 -9 9 -3 82 29 335 24
186 28 254 23 328 -3 51 -10 95 -15 98 -5 3 -9 -2 -9 -10 0 -9 -14 -50 -31
-93 -18 -43 -37 -98 -44 -123 -10 -39 -15 -45 -36 -42 -13 1 -54 -7 -92 -18
-38 -12 -107 -25 -154 -31 -119 -13 -147 -27 -177 -88 -14 -28 -37 -83 -50
-124 -48 -147 -252 -617 -279 -644 -13 -12 -212 3 -632 46 -110 11 -246 25
-302 30 -57 5 -107 12 -112 15 -5 3 -7 34 -5 68 3 35 11 198 19 363 8 165 19
381 25 480 5 99 14 275 20 392 6 116 15 278 20 360 5 81 14 252 20 378 6 127
14 241 16 254 5 23 8 23 62 17 175 -21 606 -114 831 -180 115 -34 90 -17 -49
32 -288 101 -686 208 -816 219 -66 5 -72 4 -88 -18z m-40 -371 c-3 -51 -10
-250 -16 -443 -6 -192 -15 -435 -20 -540 -5 -104 -14 -327 -20 -495 -7 -168
-15 -361 -18 -429 -9 -148 -6 -154 83 -175 l60 -14 -93 -1 c-86 -1 -95 1 -117
24 l-25 24 0 247 c0 136 5 358 10 493 25 603 31 742 40 841 5 58 14 200 21
315 6 116 15 218 20 228 7 11 22 17 46 17 l36 0 -7 -92z m2975 65 c11 -12 13
-49 11 -157 -3 -190 -30 -966 -42 -1251 -6 -126 -10 -272 -10 -322 0 -56 -4
-93 -10 -93 -5 0 -10 17 -10 38 0 20 -3 434 -6 920 l-6 882 30 0 c16 0 36 -7
43 -17z m-1104 -1220 c-5 -83 -48 -454 -88 -758 -14 -107 -55 -309 -101 -497
-24 -97 -36 -51 -44 162 -5 111 -2 196 10 299 22 197 23 190 -32 232 -37 28
-50 45 -59 81 -7 25 -9 57 -5 71 10 39 65 92 137 132 116 65 151 121 161 252
6 90 12 123 21 123 3 0 3 -44 0 -97z"/>
<path d="M4096 3050 c2 -96 7 -309 10 -472 7 -308 10 -330 48 -292 18 18 24
60 31 241 7 183 1 222 -35 236 -25 9 -28 16 -34 76 -3 36 -6 109 -7 161 -1 52
-5 124 -9 160 -6 43 -7 5 -4 -110z"/>
</g>
</svg>
